<?xml version="1.0" standalone="no"?><!DOCTYPE svg PUBLIC "-//W3C//DTD SVG 1.1//EN" "http://www.w3.org/Graphics/SVG/1.1/DTD/svg11.dtd"><svg t="1650291754198" class="icon" viewBox="0 0 1024 1024" version="1.1" xmlns="http://www.w3.org/2000/svg" p-id="2784" xmlns:xlink="http://www.w3.org/1999/xlink" width="200" height="200"><defs><style type="text/css">@font-face { font-family: feedback-iconfont; src: url("//at.alicdn.com/t/font_1031158_u69w8yhxdu.woff2?t=1630033759944") format("woff2"), url("//at.alicdn.com/t/font_1031158_u69w8yhxdu.woff?t=1630033759944") format("woff"), url("//at.alicdn.com/t/font_1031158_u69w8yhxdu.ttf?t=1630033759944") format("truetype"); }
</style></defs><path d="M736.99328 860.91776c-44.19584 13.33248-89.6 10.28096-132.54656-6.20544-59.65824-22.89664-125.25568-22.89664-184.91392 0-42.94656 16.4864-88.35072 19.53792-132.52608 6.20544-139.85792-42.22976-214.48704-232.6528-166.68672-425.32864s199.92576-314.63424 339.7632-272.40448c6.94272 2.08896 13.7216 4.56704 20.33664 7.3728 20.25472 8.62208 42.9056 8.62208 63.1808 0 6.59456-2.80576 13.37344-5.26336 20.31616-7.35232 139.85792-42.22976 291.98336 79.72864 339.7632 272.40448 47.80032 192.67584-26.8288 383.09888-166.68672 425.30816z" fill="#FD6F01" p-id="2785"></path><path d="M680.63232 872.7552c-25.78432 0-51.89632-4.93568-77.45536-14.7456-58.79808-22.58944-123.57632-22.56896-182.3744 0-44.83072 17.2032-91.4432 19.37408-134.81984 6.28736-141.4144-42.7008-217.25184-235.39712-169.08288-429.54752 27.62752-111.4112 92.95872-205.68064 174.71488-252.19072 55.54176-31.60064 114.15552-39.46496 169.51296-22.7328 7.00416 2.10944 13.96736 4.64896 20.70528 7.51616 19.47648 8.27392 40.93952 8.2944 60.416 0 6.73792-2.8672 13.68064-5.38624 20.66432-7.49568 55.35744-16.71168 113.9712-8.86784 169.49248 22.7328 81.77664 46.51008 147.08736 140.8 174.71488 252.19072 48.16896 194.1504-27.68896 386.84672-169.08288 429.54752a198.4512 198.4512 0 0 1-57.40544 8.43776z m-168.6528-38.74816c31.76448 0 63.50848 5.79584 93.73696 17.408 43.33568 16.65024 88.39168 18.75968 130.2528 6.12352 137.85088-41.63584 211.5584-230.52288 164.27008-421.08928-27.17696-109.568-91.2384-202.17856-171.35616-247.74656-53.80096-30.6176-110.51008-38.25664-163.96288-22.1184-6.73792 2.02752-13.45536 4.46464-19.94752 7.22944-21.25824 9.03168-44.68736 9.03168-65.9456 0a200.538112 200.538112 0 0 0-19.968-7.24992c-53.4528-16.13824-110.16192-8.4992-163.96288 22.1184-80.11776 45.568-144.1792 138.19904-171.35616 247.74656-47.26784 190.5664 26.4192 379.47392 164.27008 421.08928 41.86112 12.63616 86.89664 10.52672 130.23232-6.12352 30.22848-11.5712 61.99296-17.38752 93.73696-17.38752z" fill="#FB2501" p-id="2786"></path><path d="M730.25536 850.45248c-42.25024 12.75904-85.62688 8.56064-126.7712-8.15104-58.53184-23.77728-124.45696-23.77728-182.9888 0-41.12384 16.71168-84.50048 20.8896-126.73024 8.13056-135.65952-40.96-208.05632-225.66912-161.6896-412.5696S326.00064 132.68992 461.63968 173.64992c5.7344 1.72032 11.34592 3.95264 16.83456 6.53312a79.015936 79.015936 0 0 0 67.05152 0c5.48864-2.56 11.10016-4.79232 16.81408-6.51264 135.65952-40.96 283.21792 77.33248 329.58464 264.23296 46.36672 186.88-26.0096 371.58912-161.66912 412.54912z" fill="#FDD58F" p-id="2787"></path><path d="M219.91424 650.56768c-47.5136 15.03232-97.21856-17.94048-100.7616-67.64544-3.29728-46.44864 0.65536-95.66208 12.9024-145.01888C178.42176 251.00288 325.98016 132.7104 461.63968 173.6704c5.7344 1.72032 11.34592 3.95264 16.83456 6.53312a79.015936 79.015936 0 0 0 67.05152 0c5.48864-2.56 11.10016-4.79232 16.81408-6.51264 114.50368-34.57024 237.48608 44.31872 300.93312 182.14912 19.456 42.27072-2.88768 92.0576-47.26784 106.0864l-596.09088 188.64128z" fill="#FBE4AE" p-id="2788"></path><path d="M507.45344 484.78208l-2.3552-4.32128c-2.6624-4.89472-1.8432-10.93632 2.00704-14.9504l0.9216-0.96256c1.6384-1.69984 4.52608-0.53248 4.48512 1.8432l-0.16384 17.18272c0 2.68288-3.60448 3.584-4.89472 1.20832z" fill="#EFE5CC" p-id="2789"></path><path d="M511.6928 482.52928l-0.12288-6.5536c-0.04096-1.98656-2.60096-2.78528-3.72736-1.14688-0.4096 0.6144-0.67584 1.47456-0.6144 2.72384 0 0 0.53248 3.70688 3.13344 5.632 0.57344 0.4096 1.35168 0.02048 1.3312-0.65536z" fill="#EFE5CC" p-id="2790"></path><path d="M511.11936 481.8944l-0.06144-3.2768c-0.02048-0.98304-1.31072-1.39264-1.86368-0.57344-0.2048 0.3072-0.32768 0.73728-0.3072 1.35168 0 0 0.26624 1.86368 1.55648 2.82624 0.28672 0.22528 0.67584 0.02048 0.67584-0.32768zM518.4512 484.80256l2.47808-4.25984a12.763136 12.763136 0 0 0-1.59744-15.01184l-0.90112-0.98304c-1.59744-1.7408-4.5056-0.65536-4.54656 1.72032l-0.3072 17.18272c-0.04096 2.68288 3.52256 3.6864 4.87424 1.35168z" fill="#EFE5CC" p-id="2791"></path><path d="M514.29376 482.44736l0.3072-6.57408c0.08192-1.98656 2.68288-2.72384 3.76832-1.04448 0.4096 0.63488 0.63488 1.51552 0.53248 2.74432 0 0-0.63488 3.70688-3.29728 5.57056-0.57344 0.4096-1.35168-0.02048-1.31072-0.69632z" fill="#EFE5CC" p-id="2792"></path><path d="M514.88768 481.83296l0.14336-3.2768c0.04096-0.98304 1.35168-1.35168 1.88416-0.53248 0.2048 0.3072 0.32768 0.75776 0.26624 1.37216 0 0-0.32768 1.8432-1.6384 2.78528-0.26624 0.2048-0.65536 0-0.65536-0.34816z" fill="#EFE5CC" p-id="2793"></path><path d="M401.22368 340.95104c15.52384 2.64192 32.8704 4.32128 45.38368-7.31136 6.06208-5.632 9.40032-13.57824 13.0048-20.84864 4.21888-8.4992 8.45824-16.9984 12.67712-25.51808-5.69344-0.73728-11.38688-1.49504-17.08032-2.23232 4.34176 17.3056 22.34368 24.96512 38.01088 29.24544 9.74848 2.6624 18.88256 1.4336 26.43968-5.55008 3.03104-2.80576 5.46816-6.38976 7.65952-9.87136 1.80224-2.84672 3.23584-6.67648 5.89824-8.78592l-4.11648 2.39616c-0.8192-0.38912-1.6384-0.73728-2.49856-1.06496-2.06848-1.14688-2.56-1.24928-1.4336-0.26624 0.16384-0.49152-0.4096-0.65536 0.3072 0.59392 0.86016 1.47456 1.76128 2.88768 2.7648 4.25984 3.23584 4.42368 7.70048 7.3728 13.37344 6.88128 6.57408-0.57344 11.22304-5.77536 15.68768-10.1376 4.68992-4.608 9.1136-9.46176 13.33248-14.49984-4.89472-3.76832-9.78944-7.55712-14.68416-11.32544-14.41792 24.20736-13.18912 56.832 4.01408 79.38048 3.05152 4.01408 8.04864 6.12352 12.77952 3.35872 3.95264-2.31424 6.43072-8.74496 3.35872-12.77952-13.33248-17.46944-15.36-41.472-4.01408-60.49792 5.28384-8.86784-7.72096-19.64032-14.68416-11.32544a200.72448 200.72448 0 0 1-14.62272 15.74912c-0.49152 0.47104-3.80928 3.05152-3.93216 3.66592-1.08544 0.7168-0.512 0.86016 1.76128 0.43008 1.10592-0.36864 2.06848-0.2048 2.8672 0.45056 0.45056 0.65536 0.47104 0.69632 0.1024 0.14336-0.26624-0.38912-0.512-0.77824-0.75776-1.16736-0.49152-0.79872-0.94208-1.61792-1.45408-2.39616-2.90816-4.44416-6.77888-8.192-12.43136-8.33536-7.18848-0.18432-11.38688 5.24288-14.72512 10.79296-2.27328 3.76832-4.34176 8.23296-7.76192 11.12064-3.54304 2.99008-8.23296 0.8192-12.53376-0.53248-7.84384-2.47808-18.432-5.98016-20.6848-14.90944-1.88416-7.4752-13.47584-9.50272-17.08032-2.23232-3.54304 7.12704-7.08608 14.27456-10.62912 21.4016-3.03104 6.12352-5.65248 12.96384-9.70752 18.49344-6.67648 9.13408-19.94752 6.84032-29.63456 5.18144-4.97664-0.83968-10.05568 1.31072-11.48928 6.53312-1.20832 4.5056 1.536 10.67008 6.53312 11.50976z" fill="#F9BF91" p-id="2794"></path><path d="M548.06528 295.89504c-4.99712 15.19616 1.06496 32.50176 14.19264 41.51296 13.76256 9.46176 32.62464 6.84032 44.76928-3.87072-4.89472-3.76832-9.78944-7.55712-14.68416-11.32544-8.21248 17.96096-7.94624 39.50592 3.09248 56.34048 10.19904 15.5648 27.01312 24.96512 45.44512 26.35776-2.68288-4.68992-5.38624-9.37984-8.06912-14.06976-4.97664 10.21952-6.98368 21.11488-7.12704 32.44032-0.12288 10.09664 0.4096 21.05344 3.8912 30.6176 3.29728 9.09312 9.1136 17.24416 18.06336 21.42208 8.84736 4.11648 19.61984 4.66944 27.8528-1.2288-4.56704-3.52256-9.15456-7.02464-13.7216-10.5472-13.45536 32.9728-4.25984 73.27744 21.44256 97.71008 2.21184-5.3248 4.4032-10.62912 6.61504-15.95392-33.1776 3.76832-58.01984 38.6048-48.2304 71.29088 3.44064 11.48928 21.48352 6.59456 18.0224-4.97664-6.00064-19.968 8.64256-45.17888 30.208-47.63648 7.49568-0.86016 13.0048-9.87136 6.61504-15.95392-21.36064-20.31616-27.70944-52.36736-16.62976-79.54432 3.01056-7.39328-7.3728-15.11424-13.7216-10.5472-10.0352 7.18848-18.2272-6.26688-20.15232-14.88896-2.9696-13.29152-3.01056-30.35136 3.05152-42.78272 3.21536-6.61504-0.73728-13.5168-8.06912-14.06976-26.19392-1.96608-43.39712-30.5152-32.41984-54.5792 4.36224-9.54368-6.41024-18.61632-14.68416-11.32544-5.79584 5.12-15.33952 5.79584-21.68832 1.26976-6.5536-4.66944-8.43776-13.4144-6.02112-20.72576 3.74784-11.42784-14.29504-16.32256-18.04288-4.93568zM404.7872 345.62048c5.77536 1.92512 4.99712 10.11712 3.56352 14.56128-2.47808 7.72096-8.02816 15.03232-13.23008 21.15584-11.0592 13.04576-24.71936 23.12192-40.30464 30.1056-6.88128 3.09248-5.24288 12.63616 0 16.13824 13.18912 8.82688 11.71456 29.26592 8.47872 42.65984-4.36224 18.00192-15.03232 40.71424-37.02784 38.85056-7.70048-0.65536-12.84096 10.97728-6.61504 15.95392 10.6496 8.4992 23.32672 18.10432 28.28288 31.31392 5.40672 14.4384-1.59744 29.0816-11.63264 39.56736-4.34176 4.52608-3.15392 11.32544 1.88416 14.68416 10.4448 6.94272 27.62752 20.45952 19.0464 34.83648-2.60096 4.36224-0.96256 10.21952 3.35872 12.77952 17.08032 10.19904 28.85632 29.34784 24.86272 49.62304-1.536 7.7824 6.30784 14.82752 13.7216 10.5472 8.64256-4.97664 19.3536 1.92512 26.64448 6.88128 10.38336 7.04512 18.92352 17.42848 30.78144 22.016 10.5472 4.07552 22.36416 4.7104 33.23904 7.70048 10.15808 2.78528 17.38752 7.5776 21.83168 17.46944 3.80928 8.4992 17.92 4.1984 17.408-4.7104-0.18432-3.31776-0.34816-7.14752 0.3072-9.97376 0.53248-2.23232 0.28672-1.9456 1.9456-4.28032-1.2288 1.72032 0.79872-0.75776 1.08544-1.06496 0.55296-0.57344 1.1264-1.10592 1.69984-1.65888 1.67936-1.61792 3.31776-3.21536 4.8128-4.99712 3.23584-3.87072 3.7888-9.4208 0-13.2096-3.33824-3.33824-9.95328-3.8912-13.2096 0-3.52256 4.21888-8.00768 7.4752-10.97728 12.16512-4.32128 6.79936-4.79232 15.21664-4.36224 23.04 5.79584-1.57696 11.61216-3.15392 17.408-4.7104-5.69344-12.6976-16.50688-20.7872-29.51168-25.00608-5.40672-1.76128-10.99776-2.82624-16.54784-3.95264-6.3488-1.29024-13.35296-1.98656-19.37408-4.46464-6.00064-2.4576-10.752-7.92576-15.74912-11.91936-5.34528-4.28032-10.83392-8.4992-16.77312-11.93984-12.32896-7.168-27.01312-10.99776-40.09984-3.46112 4.56704 3.52256 9.15456 7.02464 13.7216 10.5472 5.65248-28.65152-8.78592-56.0128-33.44384-70.73792 1.1264 4.25984 2.23232 8.51968 3.35872 12.77952 6.53312-10.93632 5.59104-24.20736-0.06144-35.28704-5.55008-10.8544-15.7696-18.51392-25.7024-25.10848 0.63488 4.89472 1.26976 9.78944 1.88416 14.68416 13.90592-14.49984 22.97856-34.85696 17.3056-55.02976-5.07904-18.08384-19.80416-30.98624-33.95584-42.27072-2.21184 5.3248-4.4032 10.62912-6.61504 15.95392 30.5152 2.60096 48.80384-26.68544 55.05024-52.55168 5.44768-22.46656 3.87072-49.7664-17.05984-63.77472v16.13824c20.54144-9.216 38.11328-23.98208 51.24096-42.20928 6.63552-9.216 13.04576-20.25472 12.63616-31.98976-0.38912-11.6736-7.168-22.05696-18.39104-25.8048-11.38688-3.8912-16.2816 14.15168-4.9152 17.96096z" fill="#F9BF91" p-id="2795"></path><path d="M535.8592 752.66048c3.11296-7.20896 9.728-11.42784 17.38752-8.82688 4.1984 1.4336 6.79936 5.24288 10.69056 7.33184 6.47168 3.50208 14.1312 2.12992 18.26816-4.13696 2.33472-3.52256 3.4816-6.26688 7.29088-8.17152 3.95264-1.96608 9.56416-1.16736 13.88544-3.87072 4.9152-3.072 7.10656-8.31488 8.27392-13.74208 1.31072-6.10304 2.43712-12.22656 3.4816-18.37056 0.83968-4.97664-1.31072-10.05568-6.53312-11.48928-4.48512-1.2288-10.6496 1.51552-11.48928 6.53312-0.98304 5.89824-2.08896 11.79648-3.31776 17.63328-0.24576 1.20832-0.57344 2.39616-0.8192 3.584-0.28672 1.45408-0.26624 0.45056-0.08192 0.53248 0.3072-0.26624 0.59392-0.53248 0.90112-0.8192-0.26624 0.06144-0.512 0.1024-0.79872 0.1024-0.90112-0.512-3.62496 0.45056-4.83328 0.69632-5.09952 1.06496-9.8304 3.70688-13.78304 7.04512-2.06848 1.7408-3.80928 3.7888-5.38624 6.00064-0.6144 0.86016-1.41312 1.90464-1.80224 2.90816-1.24928 1.80224-0.3072 1.86368 2.82624 0.22528 3.584-0.02048 4.38272-0.49152 2.37568-1.37216-2.3552-3.584-8.4992-6.49216-12.47232-8.02816-5.18144-1.98656-10.79296-2.41664-16.26112-1.57696-10.32192 1.57696-19.78368 8.76544-23.94112 18.37056-2.00704 4.62848-1.37216 10.01472 3.35872 12.77952 3.95264 2.31424 10.77248 1.31072 12.77952-3.33824z" fill="#F9BF91" p-id="2796"></path><path d="M611.1232 703.46752c5.77536-36.12672 18.55488-70.5536 37.92896-101.60128-5.79584-1.57696-11.61216-3.15392-17.408-4.7104 1.26976 16.87552-11.53024 31.41632-18.71872 45.69088-8.4992 16.85504-14.82752 34.75456-18.69824 53.22752h18.0224c-2.31424-14.58176-4.608-29.16352-6.92224-43.74528-1.31072-8.25344-13.312-8.64256-17.08032-2.23232-6.4512 10.97728-7.3728 23.53152-8.4992 35.92192-1.2288 13.63968-2.47808 27.29984-3.70688 40.93952 5.3248-2.21184 10.62912-4.4032 15.95392-6.61504-8.66304-10.26048-14.00832-23.28576-15.09376-36.67968-0.96256-11.81696-18.6368-12.20608-18.67776 0-0.06144 15.31904-0.1024 30.65856-0.16384 45.9776-0.02048 4.608 3.56352 8.64256 8.11008 9.17504 4.11648 0.49152 9.58464-2.048 10.26048-6.69696l10.26048-71.61856c0.7168-4.99712-1.2288-10.0352-6.53312-11.48928-4.7104-1.29024-10.38336 1.57696-11.48928 6.53312-5.18144 22.89664-11.61216 45.4656-19.29216 67.64544 5.69344-0.73728 11.38688-1.49504 17.08032-2.23232-4.48512-6.20544-4.52608-13.25056-4.42368-20.66432 0.14336-8.6016 0.38912-17.12128-1.6384-25.55904-1.69984-7.0656-10.67008-8.76544-15.62624-4.11648-4.87424 4.58752-5.59104 10.5472-6.18496 16.87552-0.57344 6.26688-2.33472 12.45184-4.66944 18.26816-4.85376 12.1856-12.57472 23.20384-19.92704 33.97632 5.69344 2.39616 11.38688 4.79232 17.08032 7.20896 3.25632-10.0352 8.84736-18.8416 16.34304-26.23488 8.58112-8.43776-4.62848-21.66784-13.2096-13.2096-9.80992 9.64608-16.91648 21.4016-21.15584 34.48832-3.42016 10.56768 11.3664 15.5648 17.08032 7.20896 7.24992-10.60864 14.4384-21.34016 19.59936-33.13664 2.51904-5.77536 4.73088-11.69408 6.02112-17.87904 0.73728-3.52256 1.18784-7.08608 1.51552-10.67008 0.1024-1.16736 0.08192-3.072 0.69632-3.64544-5.20192-1.37216-10.40384-2.74432-15.62624-4.11648 4.07552 16.97792-3.1744 35.30752 7.92576 50.688 4.77184 6.59456 14.336 5.71392 17.08032-2.23232 7.65952-22.17984 14.11072-44.7488 19.29216-67.64544l-18.0224-4.97664-10.26048 71.61856c6.12352 0.8192 12.22656 1.65888 18.35008 2.47808 0.06144-15.31904 0.1024-30.65856 0.16384-45.9776h-18.67776c1.51552 18.6368 8.51968 35.59424 20.56192 49.88928 5.7344 6.79936 15.29856 0.65536 15.95392-6.61504l3.3792-37.21216c0.9216-10.1376 0.98304-21.1968 6.28736-30.208-5.69344-0.73728-11.38688-1.49504-17.08032-2.23232 2.31424 14.58176 4.608 29.16352 6.92224 43.74528 1.45408 9.13408 16.19968 8.68352 18.0224 0 3.91168-18.6368 10.19904-36.63872 19.23072-53.41184 8.51968-15.83104 20.2752-31.51872 18.86208-50.46272-0.67584-9.09312-12.30848-12.9024-17.408-4.7104-20.15232 32.27648-33.81248 68.48512-39.81312 106.06592-0.79872 4.97664 1.29024 10.05568 6.53312 11.48928 4.44416 1.16736 10.69056-1.55648 11.48928-6.57408z" fill="#F9BF91" p-id="2797"></path><path d="M536.73984 707.74784c-1.67936 2.31424-3.8912 4.1984-6.3488 5.632-0.6144 0.34816-1.2288 0.67584-1.86368 1.00352 3.21536 0.26624 4.73088 1.35168 4.52608 3.25632 0.47104-0.79872 0.02048-3.39968 0.16384-4.38272 0.86016-6.5536 4.05504-12.34944 8.68352-16.95744-5.20192-1.37216-10.40384-2.74432-15.62624-4.11648 1.69984 9.33888-5.95968 18.6368-10.6496 25.92768-5.7344 8.9088-10.46528 18.432-10.46528 29.24544 4.68992-2.68288 9.37984-5.38624 14.06976-8.06912-5.4272-3.11296-3.23584-15.36-2.64192-20.52096 0.96256-8.27392 3.33824-16.13824 10.09664-21.38112-4.89472-0.63488-9.78944-1.26976-14.68416-1.88416 0.69632 0.96256-4.97664 9.60512-6.16448 11.48928-1.6384 2.62144-3.39968 5.20192-5.28384 7.63904-0.86016 1.10592-1.76128 2.17088-2.6624 3.21536-0.53248 0.63488-1.08544 1.26976-1.6384 1.88416-1.35168 1.31072-1.55648 1.59744-0.57344 0.86016h4.97664c-0.4096-0.14336-0.8192-0.28672-1.20832-0.43008l4.11648 2.39616c-6.16448-5.40672-9.216-17.46944-10.05568-25.3952l-11.83744 9.0112c5.18144 1.92512 9.15456 6.7584 11.0592 11.85792 1.1264 2.9696 1.59744 5.8368 1.39264 8.94976-0.1024 1.536-0.63488 5.36576-1.6384 5.79584 1.57696-0.43008 3.15392-0.86016 4.7104-1.26976-1.26976 0.12288-5.03808-3.23584-6.36928-4.1984-2.56-1.82272-5.12-3.66592-7.61856-5.59104-5.05856-3.8912-9.9328-8.0896-14.41792-12.63616-4.15744-4.21888-7.84384-8.72448-10.81344-13.84448-1.49504-2.56-2.78528-5.18144-3.72736-7.9872-0.45056-1.35168-0.86016-2.72384-1.18784-4.096-0.22528-0.94208-0.43008-1.86368-0.6144-2.80576-0.24576 1.88416-0.12288 2.08896 0.36864 0.59392l-2.39616 4.11648c-0.04096 0.08192-0.1024 0.16384-0.14336 0.22528-1.57696 0.43008-3.15392 0.86016-4.7104 1.26976 1.76128-0.14336 6.0416 1.76128 8.45824 2.92864 3.82976 1.8432 7.49568 3.9936 10.9568 6.47168 6.18496 4.44416 11.50976 10.17856 15.70816 16.54784 0.49152-3.76832 0.98304-7.55712 1.45408-11.32544 1.2288-1.00352 1.1264 0.34816-0.55296-0.24576-0.9216-0.32768-1.55648-0.4096-2.39616-0.79872-2.56-1.18784-4.38272-3.35872-6.18496-5.44768-4.38272-5.07904-8.35584-10.09664-14.336-13.45536-9.40032-5.28384-18.45248 6.88128-11.32544 14.68416 7.86432 8.62208 17.38752 15.68768 27.97568 20.60288 2.39616-5.69344 4.79232-11.38688 7.20896-17.08032-15.23712-2.90816-28.81536-9.95328-42.16832-17.59232-11.0592-6.32832-22.09792-13.02528-31.60064-21.6064-9.03168-8.17152-16.42496-17.79712-19.78368-29.65504-3.66592-12.88192-5.16096-26.39872-15.21664-36.2496-7.31136-7.14752-21.01248 2.39616-14.68416 11.32544 17.59232 24.69888 38.37952 46.81728 62.27968 65.47456 3.76832-4.89472 7.55712-9.78944 11.32544-14.68416-15.50336-10.87488-28.50816-24.82176-41.45152-38.52288l-13.2096 13.2096a1486.391296 1486.391296 0 0 0 73.66656 69.14048c8.97024 7.86432 22.03648-4.89472 13.2096-13.2096-17.14176-16.1792-36.864-28.672-58.61376-37.70368-3.56352-1.47456-8.86784 0.94208-10.5472 4.3008-5.24288 10.48576 2.12992 18.5344 9.05216 25.86624 6.49216 6.84032 13.47584 13.16864 20.84864 19.0464 3.76832-4.89472 7.55712-9.78944 11.32544-14.68416-11.55072-6.0416-23.08096-12.0832-34.63168-18.1248-8.37632-4.38272-17.18272 4.4032-12.77952 12.77952 9.29792 17.73568 25.55904 30.88384 44.62592 36.78208 10.15808 3.13344 16.384-11.85792 7.20896-17.08032a143.874048 143.874048 0 0 0-34.14016-14.00832c-8.3968-2.23232-16.6912 9.48224-9.09312 15.62624 16.34304 13.18912 33.71008 24.90368 52.24448 34.816 4.096 2.19136 9.216 1.39264 12.06272-2.41664 2.51904-3.35872 2.9696-9.35936-0.73728-12.26752a151.56224 151.56224 0 0 1-22.28224-21.504l-13.2096 13.2096c9.48224 7.5776 19.53792 14.09024 30.57664 19.16928 8.704 4.01408 16.7936-4.07552 12.77952-12.77952-5.14048-11.20256-13.1072-20.76672-21.42208-29.75744-4.03456-4.36224-8.192-8.62208-12.20608-13.0048-2.08896-2.27328-4.17792-4.56704-6.10304-6.9632-0.65536-0.79872-1.24928-1.59744-1.82272-2.4576-0.512-0.77824-1.20832-3.1744-1.37216-2.08896-5.20192 1.37216-10.40384 2.74432-15.62624 4.11648 12.5952 10.01472 26.43968 17.55136 41.84064 22.28224 11.53024 3.54304 16.44544-14.47936 4.97664-18.0224-12.12416-3.72736-23.6544-9.56416-33.60768-17.48992-4.8128-3.82976-14.41792-3.60448-15.62624 4.11648-2.41664 15.4624 11.32544 26.84928 21.01248 37.0688 9.17504 9.68704 18.16576 19.3536 23.81824 31.62112l12.77952-12.77952c-9.50272-4.38272-18.61632-9.70752-26.80832-16.26112-9.33888-7.4752-21.07392 3.8912-13.2096 13.2096 6.69696 7.92576 14.11072 15.09376 22.28224 21.504 3.76832-4.89472 7.55712-9.78944 11.32544-14.68416-17.08032-9.13408-33.3824-19.72224-48.45568-31.88736-3.03104 5.20192-6.06208 10.40384-9.09312 15.62624 10.4448 2.78528 20.2752 6.77888 29.67552 12.12416 2.39616-5.69344 4.79232-11.38688 7.20896-17.08032-14.60224-4.52608-26.37824-14.70464-33.46432-28.20096l-12.77952 12.77952c11.55072 6.0416 23.08096 12.0832 34.63168 18.1248 4.11648 2.1504 9.19552 1.41312 12.06272-2.41664 2.51904-3.3792 2.94912-9.33888-0.73728-12.26752-5.36576-4.28032-10.52672-8.76544-15.44192-13.55776a202.87488 202.87488 0 0 1-7.168-7.3728c-1.14688-1.2288-3.87072-3.52256-3.70688-4.85376-0.43008 1.57696-0.86016 3.15392-1.26976 4.7104 0.2048-0.4096 0.4096-0.79872 0.59392-1.20832-3.52256 1.4336-7.02464 2.8672-10.5472 4.3008 18.6368 7.72096 35.71712 19.06688 50.36032 32.89088l13.2096-13.2096a1486.987264 1486.987264 0 0 1-73.66656-69.14048c-8.51968-8.54016-21.46304 4.46464-13.2096 13.2096 14.09024 14.92992 28.3648 29.5936 45.24032 41.45152 8.58112 6.02112 19.70176-8.13056 11.32544-14.68416-22.58944-17.63328-42.74176-38.33856-59.37152-61.70624-4.89472 3.76832-9.78944 7.55712-14.68416 11.32544 8.86784 8.68352 8.2944 23.79776 12.73856 34.79552 5.2224 12.96384 13.90592 23.98208 24.4736 33.03424 10.62912 9.1136 22.528 16.54784 34.67264 23.4496 14.17216 8.02816 28.99968 15.54432 45.13792 18.61632 4.56704 0.88064 9.19552-0.88064 11.01824-5.40672 1.59744-3.97312 0.45056-9.68704-3.82976-11.6736-9.29792-4.32128-17.28512-10.11712-24.18688-17.69472-3.76832 4.89472-7.55712 9.78944-11.32544 14.68416 7.53664 4.23936 11.32544 13.06624 18.67776 17.8176 8.8064 5.71392 19.27168 5.91872 27.4432-0.8192 3.01056-2.47808 3.56352-8.13056 1.45408-11.32544-9.87136-14.9504-23.71584-26.19392-40.38656-32.74752-3.80928-1.49504-7.94624-3.03104-12.10368-2.29376-5.34528 0.96256-8.97024 4.73088-10.07616 10.01472-1.69984 8.15104 3.11296 18.432 6.92224 25.3952 8.02816 14.66368 21.0944 25.78432 34.28352 35.65568 6.36928 4.77184 14.39744 12.5952 23.01952 10.93632 9.56416-1.8432 13.18912-11.9808 14.15168-20.62336 1.98656-17.96096-9.3184-35.04128-25.96864-41.24672-5.3248-1.98656-12.45184 3.25632-11.83744 9.0112 1.3312 12.4928 12.86144 55.52128 32.50176 38.05184 6.77888-6.0416 12.32896-14.5408 16.83456-22.34368 4.5056-7.7824 10.09664-18.26816 4.01408-26.78784-3.80928-5.34528-9.6256-5.79584-14.68416-1.88416-11.03872 8.56064-14.49984 22.79424-15.70816 36.02432-1.18784 12.77952-0.43008 28.07808 12.04224 35.24608 6.12352 3.52256 14.06976-0.94208 14.06976-8.06912 0-10.11712 7.24992-18.432 12.288-26.60352 6.38976-10.3424 10.36288-21.34016 8.13056-33.54624-1.29024-7.10656-10.97728-8.76544-15.62624-4.11648-9.48224 9.48224-17.67424 26.19392-13.45536 39.87456 2.70336 8.72448 11.53024 11.9808 19.72224 8.86784 7.49568-2.84672 13.29152-8.25344 17.92-14.6432 2.94912-4.096 0.69632-10.40384-3.35872-12.77952-4.68992-2.70336-9.78944-0.69632-12.75904 3.42016zM564.96128 652.94336v-0.7168c0.06144-1.80224-0.3072-3.4816-1.1264-5.03808a9.97376 9.97376 0 0 0-2.70336-4.21888 9.85088 9.85088 0 0 0-4.21888-2.70336c-1.55648-0.8192-3.23584-1.18784-5.03808-1.1264-1.16736 0.16384-2.31424 0.3072-3.4816 0.47104-2.21184 0.6144-4.13696 1.7408-5.77536 3.35872-0.67584 0.88064-1.37216 1.76128-2.048 2.64192-1.18784 2.048-1.78176 4.23936-1.78176 6.59456v0.7168c-0.06144 1.80224 0.3072 3.4816 1.1264 5.03808 0.53248 1.61792 1.4336 3.03104 2.70336 4.21888a9.85088 9.85088 0 0 0 4.21888 2.70336c1.55648 0.8192 3.23584 1.18784 5.03808 1.1264 1.16736-0.16384 2.31424-0.3072 3.4816-0.47104 2.21184-0.6144 4.13696-1.7408 5.77536-3.35872 0.67584-0.88064 1.37216-1.76128 2.048-2.64192 1.18784-2.02752 1.78176-4.23936 1.78176-6.59456zM522.36288 295.58784c-9.46176 10.93632-14.5408 3.60448-26.46016 1.3312-7.4752-1.41312-18.24768-3.39968-25.66144-1.82272-19.31264 4.11648-33.52576 33.71008-44.09344 48.27136-12.51328 17.24416-18.75968 38.52288-32.70656 54.53824-15.58528 17.87904-21.72928 34.89792-20.25472 58.88 1.61792 26.29632 42.74176 26.46016 41.12384 0-0.65536-10.60864-0.67584-18.67776 5.89824-27.4432 5.81632-7.76192 12.65664-14.15168 17.57184-22.7328 10.4448-18.20672 18.92352-35.84 31.51872-52.85888 3.01056-4.07552 7.76192-8.82688 9.87136-13.33248 1.31072-1.78176 2.62144-3.56352 3.95264-5.3248-9.5232 0.4096-11.48928 0.88064-5.87776 1.39264 4.13696 1.24928 8.86784 0.26624 13.0048 1.31072 4.28032 1.08544 8.15104 3.76832 12.47232 4.9152 18.26816 4.89472 36.90496-4.4032 48.7424-18.08384 17.18272-19.90656-11.776-49.11104-29.10208-29.04064z" fill="#F9BF91" p-id="2798"></path><path d="M365.95712 428.81024v0.34816c-0.1024 2.82624 0.49152 5.46816 1.76128 7.92576 0.8192 2.53952 2.2528 4.75136 4.25984 6.61504 1.86368 2.00704 4.07552 3.42016 6.61504 4.25984 2.4576 1.29024 5.09952 1.88416 7.92576 1.76128l5.46816-0.73728c3.4816-0.98304 6.51264-2.74432 9.07264-5.28384 1.06496-1.39264 2.1504-2.7648 3.21536-4.15744 1.86368-3.21536 2.78528-6.656 2.80576-10.38336v-0.34816c0.1024-2.82624-0.49152-5.46816-1.76128-7.92576-0.8192-2.53952-2.2528-4.75136-4.25984-6.61504a15.566848 15.566848 0 0 0-6.61504-4.25984c-2.4576-1.29024-5.09952-1.88416-7.92576-1.76128l-5.46816 0.73728c-3.4816 0.98304-6.51264 2.74432-9.07264 5.28384-1.06496 1.39264-2.1504 2.7648-3.21536 4.15744-1.8432 3.21536-2.78528 6.67648-2.80576 10.38336zM525.39392 333.80352c6.90176 20.39808 16.11776 28.79488 32.37888 42.74176 8.8064 7.55712 26.70592 9.0112 32.27648-4.15744 1.18784-2.78528 2.3552-5.59104 3.54304-8.37632 1.41312-6.92224 1.04448-7.2704-1.10592-1.024-11.69408-4.85376-23.38816-9.68704-35.10272-14.5408 2.70336 23.94112 6.28736 38.2976 22.2208 57.1392 2.74432 3.25632 8.56064 7.10656 10.09664 11.03872 1.96608 5.0176 0 13.16864 0.32768 18.47296 0.73728 11.30496 4.58752 21.64736 10.09664 31.41632 12.98432 23.06048 48.49664 2.3552 35.49184-20.74624-9.44128-16.7936-0.32768-36.0448-12.26752-52.67456-4.97664-6.92224-11.6736-12.47232-16.87552-19.23072-6.43072-8.35584-6.79936-15.0528-7.96672-25.41568-2.02752-17.96096-20.84864-26.78784-35.10272-14.5408-3.93216 3.3792-6.22592 6.47168-8.02816 11.42784-0.75776 2.06848-4.23936 14.35648-0.8192 6.28736 10.752-1.39264 21.52448-2.7648 32.27648-4.15744-9.1136-7.80288-17.94048-13.18912-21.79072-24.59648-8.41728-24.92416-48.14848-14.21312-39.64928 10.93632zM379.16672 461.312c-5.95968 10.05568-12.32896 19.70176-19.92704 28.61056-6.81984 7.9872-15.17568 15.42144-17.38752 26.2144-2.41664 11.81696 3.93216 23.22432 6.5536 34.46784 2.68288 11.55072 0.26624 22.79424 2.29376 34.38592 3.9936 22.71232 19.68128 39.38304 34.46784 55.95136 13.9264 15.60576 25.16992 34.18112 47.3088 38.13376 25.86624 4.608 36.98688-35.0208 10.93632-39.64928-13.90592-2.47808-24.30976-22.03648-33.3824-32.1536-5.67296-6.32832-12.16512-12.71808-15.74912-20.5824-4.07552-8.92928-2.70336-15.48288-2.82624-24.80128-0.12288-8.74496-2.048-17.16224-4.3008-25.53856-1.41312-4.85376-2.90816-9.68704-4.48512-14.47936-1.536 5.7344-0.32768 5.55008 3.62496-0.55296 11.69408-8.97024 20.992-26.8288 28.3648-39.28064 13.49632-22.79424-22.016-43.49952-35.49184-20.72576z" fill="#F9BF91" p-id="2799"></path><path d="M621.40416 485.53984c8.62208 18.2272 3.46112 43.76576 17.73568 59.65824 1.14688 1.536 2.31424 3.072 3.46112 4.608 3.80928-7.84384 3.97312-10.05568 0.53248-6.656-3.03104 0.7168-6.26688 6.02112-8.04864 8.47872-6.43072 8.78592-9.85088 19.968-14.0288 29.94176-10.21952 24.3712 29.53216 35.00032 39.64928 10.93632 2.4576-5.8368 4.46464-12.02176 8.21248-17.08032 2.68288-3.62496 6.69696-5.95968 9.40032-9.70752 6.84032-9.48224 7.51616-21.25824 2.60096-31.78496-5.16096-11.03872-11.10016-18.432-13.4144-31.04768-2.4576-13.53728-4.64896-25.4976-10.62912-38.0928-11.30496-23.90016-46.75584-3.05152-35.47136 20.74624z" fill="#F9BF91" p-id="2800"></path><path d="M662.60992 531.16928C685.03552 664.71936 632.832 748.15488 512 737.36192c-78.60224-7.02464-142.88896-92.32384-142.88896-206.21312S472.69888 324.95616 512 324.95616c36.82304 0 131.76832 93.9008 150.60992 206.21312z" fill="#DC8C4D" p-id="2801"></path><path d="M378.5728 531.16928a192.53248 133.4272 90 1 0 266.8544 0 192.53248 133.4272 90 1 0-266.8544 0Z" fill="#B8633E" p-id="2802"></path><path d="M512 726.95808c-75.3664 0-136.68352-87.83872-136.68352-195.80928 0-108.97408 98.16064-195.80928 136.68352-195.80928 37.43744 0 136.68352 88.92416 136.68352 195.80928 0 107.97056-61.31712 195.80928-136.68352 195.80928z m0-385.06496c-35.65568 0-130.1504 85.97504-130.1504 189.27616 0 104.36608 58.38848 189.27616 130.1504 189.27616s130.1504-84.91008 130.1504-189.27616c0-104.12032-98.26304-189.27616-130.1504-189.27616z" fill="#741C18" p-id="2803"></path><path d="M452.15744 391.70048s-5.98016-7.9872 25.27232-19.27168c8.78592-3.1744 14.72512-6.30784 18.7392-9.15456 5.40672-3.85024 12.82048 0.2048 12.8 6.84032-0.1024 14.09024-9.97376 29.32736-56.81152 21.58592zM574.976 391.70048s5.98016-7.9872-25.27232-19.27168c-8.78592-3.1744-14.72512-6.30784-18.7392-9.15456-5.40672-3.85024-12.82048 0.2048-12.8 6.84032 0.1024 14.09024 9.99424 29.32736 56.81152 21.58592zM437.30944 444.78464s-1.3312-37.13024 30.26944-36.12672c12.43136 0.38912 19.7632-2.82624 24.08448-6.8608 5.79584-5.4272 15.48288-2.94912 16.93696 4.83328 2.08896 11.12064-4.25984 23.38816-40.26368 25.84576-3.13344 0.2048-6.22592 0.88064-9.19552 1.90464-7.18848 2.4576-19.80416 7.168-21.83168 10.40384zM589.84448 444.78464s1.3312-37.13024-30.26944-36.12672c-12.43136 0.38912-19.7632-2.82624-24.08448-6.8608-5.79584-5.4272-15.48288-2.94912-16.93696 4.83328-2.08896 11.12064 4.25984 23.38816 40.26368 25.84576 3.13344 0.2048 6.22592 0.88064 9.19552 1.90464 7.18848 2.4576 19.78368 7.168 21.83168 10.40384zM486.35904 467.21024c0 9.40032-7.61856 16.9984-16.9984 16.9984s-16.9984-7.61856-16.9984-16.9984c0-9.40032 8.94976-5.81632 14.97088-13.0048 10.05568-11.9808 19.02592 3.62496 19.02592 13.0048z" fill="#A45038" p-id="2804"></path><path d="M501.248 472.02304a22.15936 11.40736 90 1 0 22.81472 0 22.15936 11.40736 90 1 0-22.81472 0Z" fill="#A45038" p-id="2805"></path><path d="M403.2512 507.31008c-1.024 1.82272-3.80928 1.024-3.72736-1.06496 0.69632-17.14176 4.03456-52.40832 19.61984-52.40832 41.10336 0.02048 2.02752 21.36064-15.89248 53.47328zM455.86432 510.75072c5.07904-7.10656 0.02048-18.7392-7.04512-16.22016l-20.0704 7.18848c-5.75488 2.06848-7.29088 12.10368-2.62144 17.08032l17.5104 18.67776c5.26336 5.61152 12.86144-0.63488 11.5712-9.5232l-1.2288-8.56064c-0.47104-3.11296 0.24576-6.3488 1.88416-8.64256zM463.58528 550.15424c-2.49856 1.49504-5.44768-1.06496-4.4032-3.76832 5.4272-14.11072 17.59232-43.008 28.16-48.4352 19.29216-9.91232 16.22016 21.03296 7.5776 28.11904-7.3728 6.0416-17.42848 15.79008-31.3344 24.08448zM413.51168 542.08512c-4.8128-0.24576-7.51616 5.40672-4.42368 9.09312 6.57408 7.84384 13.43488 19.10784 6.656 26.27584-8.76544 9.27744-15.7696 25.74336-7.9872 37.33504 3.03104 4.52608 10.09664 2.60096 10.19904-2.84672 0.16384-8.54016 2.00704-18.65728 9.76896-17.87904 12.41088 1.26976 41.0624-49.09056-14.21312-51.97824z" fill="#A45038" p-id="2806"></path><path d="M457.971072 600.966906a29.77792 11.61216 79.135 1 0 22.808001-4.377681 29.77792 11.61216 79.135 1 0-22.808001 4.377681Z" fill="#A45038" p-id="2807"></path><path d="M417.60768 627.3024s16.22016-13.1072 24.30976 16.03584c8.11008 29.14304 28.99968 18.944 29.47072 33.50528 0 0-36.29056-2.43712-48.7424-19.43552-12.43136-16.97792-5.03808-30.1056-5.03808-30.1056zM477.2864 660.50048c1.29024-7.24992 8.02816-12.5952 15.2576-11.22304 4.9152 0.94208 9.89184 4.89472 12.26752 15.85152 5.05856 23.51104 1.96608 24.14592 7.0656 34.48832 0.26624 0.55296 3.91168 2.19136 1.8432 2.41664-13.0048 1.3312-41.84064-11.22304-36.43392-41.53344zM539.01312 467.21024c0 9.40032 7.61856 16.9984 16.9984 16.9984 9.40032 0 16.9984-7.61856 16.9984-16.9984 0-9.40032-8.94976-5.81632-14.97088-13.0048-10.05568-11.9808-19.02592 3.62496-19.02592 13.0048zM622.10048 507.31008c1.024 1.82272 3.80928 1.024 3.72736-1.06496-0.69632-17.14176-4.03456-52.40832-19.61984-52.40832-41.08288 0.02048-2.00704 21.36064 15.89248 53.47328zM569.50784 510.75072c-5.07904-7.10656-0.02048-18.7392 7.04512-16.22016l20.0704 7.18848c5.75488 2.06848 7.29088 12.10368 2.62144 17.08032l-17.5104 18.67776c-5.26336 5.61152-12.86144-0.63488-11.5712-9.5232l1.2288-8.56064c0.47104-3.11296-0.24576-6.3488-1.88416-8.64256zM561.78688 550.15424c2.49856 1.49504 5.44768-1.06496 4.4032-3.76832-5.4272-14.11072-17.59232-43.008-28.16-48.4352-19.29216-9.91232-16.22016 21.03296-7.5776 28.11904 7.35232 6.0416 17.42848 15.79008 31.3344 24.08448zM611.84 542.08512c4.8128-0.24576 7.51616 5.40672 4.42368 9.09312-6.57408 7.84384-13.43488 19.10784-6.656 26.27584 8.76544 9.27744 15.7696 25.74336 7.9872 37.33504-3.03104 4.52608-10.09664 2.60096-10.19904-2.84672-0.16384-8.54016-2.00704-18.65728-9.76896-17.87904-12.3904 1.26976-41.04192-49.09056 14.21312-51.97824z" fill="#A45038" p-id="2808"></path><path d="M550.420638 628.020081a11.61216 29.77792 10.865 1 0 11.226012-58.488245 11.61216 29.77792 10.865 1 0-11.226012 58.488245Z" fill="#A45038" p-id="2809"></path><path d="M607.76448 627.3024s-16.22016-13.1072-24.30976 16.03584-28.99968 18.944-29.47072 33.50528c0 0 36.29056-2.43712 48.7424-19.43552 12.43136-16.97792 5.03808-30.1056 5.03808-30.1056zM548.08576 660.50048c-1.29024-7.24992-8.02816-12.5952-15.2576-11.22304-4.9152 0.94208-9.89184 4.89472-12.26752 15.85152-5.05856 23.51104-1.96608 24.14592-7.0656 34.48832-0.26624 0.55296-3.91168 2.19136-1.8432 2.41664 13.0048 1.3312 41.84064-11.22304 36.43392-41.53344zM538.99264 555.84768c0 8.94976-16.42496 20.82816-25.3952 20.82816s-16.22016-11.85792-16.22016-20.82816c0-8.94976 7.2704-16.22016 16.22016-16.22016s25.3952 7.2704 25.3952 16.22016zM535.81824 622.3872c0 7.72096-13.9264 17.96096-21.504 17.96096s-13.74208-10.24-13.74208-17.96096c0-7.72096 6.144-13.98784 13.74208-13.98784s21.504 6.2464 21.504 13.98784z" fill="#A45038" p-id="2810"></path></svg>